<svg xmlns="http://www.w3.org/2000/svg" xmlns:xlink="http://www.w3.org/1999/xlink" width="500" zoomAndPan="magnify" viewBox="0 0 375 374.999991" height="500" preserveAspectRatio="xMidYMid meet" version="1.0"><defs><clipPath id="346d6bcf38"><path d="M 20.25 0 L 354.75 0 C 360.121094 0 365.269531 2.132812 369.070312 5.929688 C 372.867188 9.730469 375 14.878906 375 20.25 L 375 354.75 C 375 360.121094 372.867188 365.269531 369.070312 369.070312 C 365.269531 372.867188 360.121094 375 354.75 375 L 20.25 375 C 14.878906 375 9.730469 372.867188 5.929688 369.070312 C 2.132812 365.269531 0 360.121094 0 354.75 L 0 20.25 C 0 9.066406 9.066406 0 20.25 0 " clip-rule="nonzero"/></clipPath><clipPath id="2cd226d837"><path d="M 121.246094 155.355469 L 253.996094 155.355469 L 253.996094 337.605469 L 121.246094 337.605469 Z M 121.246094 155.355469 " clip-rule="nonzero"/></clipPath><clipPath id="44eb890eb0"><path d="M 121.246094 47.757812 L 253.75 47.757812 L 253.75 230.007812 L 121.246094 230.007812 Z M 121.246094 47.757812 " clip-rule="nonzero"/></clipPath><clipPath id="763a56b3a7"><path d="M 37.816406 138.828125 L 108 138.828125 L 108 236.328125 L 37.816406 236.328125 Z M 37.816406 138.828125 " clip-rule="nonzero"/></clipPath><clipPath id="c3a355ef38"><path d="M 266.683594 138.828125 L 337.183594 138.828125 L 337.183594 236.328125 L 266.683594 236.328125 Z M 266.683594 138.828125 " clip-rule="nonzero"/></clipPath></defs><g clip-path="url(#346d6bcf38)"><rect x="-37.5" width="450" fill="#000000" y="-37.499999" height="449.999989" fill-opacity="1"/></g><g clip-path="url(#2cd226d837)"><path fill="#ffffff" d="M 121.324219 200.09375 L 194.421875 246.464844 L 121.324219 292.871094 L 121.324219 337.605469 L 253.914062 253.898438 L 253.914062 239.027344 L 121.324219 155.355469 Z M 121.324219 200.09375 " fill-opacity="1" fill-rule="nonzero"/></g><g clip-path="url(#44eb890eb0)"><path fill="#ffffff" d="M 253.667969 92.496094 L 180.574219 138.863281 L 253.667969 185.269531 L 253.667969 230.007812 L 121.078125 146.300781 L 121.078125 131.425781 L 253.667969 47.757812 Z M 253.667969 92.496094 " fill-opacity="1" fill-rule="nonzero"/></g><g clip-path="url(#763a56b3a7)"><path fill="#ffffff" d="M 108.273438 162.761719 L 69.453125 187.570312 L 108.273438 212.394531 L 108.273438 236.328125 L 37.859375 191.546875 L 37.859375 183.589844 L 108.273438 138.828125 Z M 108.273438 162.761719 " fill-opacity="1" fill-rule="nonzero"/></g><g clip-path="url(#c3a355ef38)"><path fill="#ffffff" d="M 266.726562 162.761719 L 305.542969 187.570312 L 266.726562 212.394531 L 266.726562 236.328125 L 337.136719 191.546875 L 337.136719 183.589844 L 266.726562 138.828125 Z M 266.726562 162.761719 " fill-opacity="1" fill-rule="nonzero"/></g></svg>