<svg xmlns="http://www.w3.org/2000/svg" xmlns:xlink="http://www.w3.org/1999/xlink" width="500" zoomAndPan="magnify" viewBox="0 0 375 374.999991" height="500" preserveAspectRatio="xMidYMid meet" version="1.0"><defs><clipPath id="039c63b65f"><path d="M 187.5 0 C 291.054688 0 375 83.945312 375 187.5 C 375 291.054688 291.054688 375 187.5 375 C 83.945312 375 0 291.054688 0 187.5 C 0 83.945312 83.945312 0 187.5 0 " clip-rule="nonzero"/></clipPath><clipPath id="82a8886f67"><path d="M 131.730469 151.246094 L 243.480469 151.246094 L 243.480469 304.246094 L 131.730469 304.246094 Z M 131.730469 151.246094 " clip-rule="nonzero"/></clipPath><clipPath id="f875bfa80c"><path d="M 131.730469 55.472656 L 243.269531 55.472656 L 243.269531 208.472656 L 131.730469 208.472656 Z M 131.730469 55.472656 " clip-rule="nonzero"/></clipPath><clipPath id="4c4d71b8fc"><path d="M 53.128906 147.09375 L 111.347656 147.09375 L 111.347656 228.09375 L 53.128906 228.09375 Z M 53.128906 147.09375 " clip-rule="nonzero"/></clipPath><clipPath id="f2bcbbef97"><path d="M 263.359375 147.09375 L 321.859375 147.09375 L 321.859375 228.09375 L 263.359375 228.09375 Z M 263.359375 147.09375 " clip-rule="nonzero"/></clipPath></defs><g clip-path="url(#039c63b65f)"><path stroke-linecap="butt" transform="matrix(0.75, 0, 0, 0.75, 0.0000045, -0.000000000000021316)" fill="none" stroke-linejoin="miter" d="M 250.000026 0.000000000000028422 C 388.072961 0.000000000000028422 500.000059 111.927098 500.000059 250.000032 C 500.000059 388.072967 388.072961 500.000065 250.000026 500.000065 C 111.927092 500.000065 -0.000006 388.072967 -0.000006 250.000032 C -0.000006 111.927098 111.927092 0.000000000000028422 250.000026 0.000000000000028422 " stroke="#000000" stroke-width="18" stroke-opacity="1" stroke-miterlimit="4"/></g><g clip-path="url(#82a8886f67)"><path fill="#000000" d="M 131.796875 188.804688 L 193.328125 227.730469 L 131.796875 266.691406 L 131.796875 304.246094 L 243.414062 233.976562 L 243.414062 221.488281 L 131.796875 151.246094 Z M 131.796875 188.804688 " fill-opacity="1" fill-rule="nonzero"/></g><g clip-path="url(#f875bfa80c)"><path fill="#000000" d="M 243.203125 93.03125 L 181.667969 131.957031 L 243.203125 170.914062 L 243.203125 208.472656 L 131.585938 138.199219 L 131.585938 125.714844 L 243.203125 55.472656 Z M 243.203125 93.03125 " fill-opacity="1" fill-rule="nonzero"/></g><g clip-path="url(#4c4d71b8fc)"><path fill="#000000" d="M 111.601562 166.976562 L 79.382812 187.585938 L 111.601562 208.210938 L 111.601562 228.09375 L 53.160156 190.890625 L 53.160156 184.277344 L 111.601562 147.09375 Z M 111.601562 166.976562 " fill-opacity="1" fill-rule="nonzero"/></g><g clip-path="url(#f2bcbbef97)"><path fill="#000000" d="M 263.390625 166.976562 L 295.605469 187.585938 L 263.390625 208.210938 L 263.390625 228.09375 L 321.828125 190.890625 L 321.828125 184.277344 L 263.390625 147.09375 Z M 263.390625 166.976562 " fill-opacity="1" fill-rule="nonzero"/></g></svg>