<?xml version="1.0" standalone="no"?><svg xmlns="http://www.w3.org/2000/svg" viewBox="0 0 1440 320"><path fill="#f3f4f5" fill-opacity="1" d="M0,96L10.9,112C21.8,128,44,160,65,192C87.3,224,109,256,131,240C152.7,224,175,160,196,160C218.2,160,240,224,262,218.7C283.6,213,305,139,327,133.3C349.1,128,371,192,393,197.3C414.5,203,436,149,458,128C480,107,502,117,524,122.7C545.5,128,567,128,589,122.7C610.9,117,633,107,655,122.7C676.4,139,698,181,720,202.7C741.8,224,764,224,785,213.3C807.3,203,829,181,851,176C872.7,171,895,181,916,160C938.2,139,960,85,982,96C1003.6,107,1025,181,1047,218.7C1069.1,256,1091,256,1113,240C1134.5,224,1156,192,1178,192C1200,192,1222,224,1244,213.3C1265.5,203,1287,149,1309,154.7C1330.9,160,1353,224,1375,240C1396.4,256,1418,224,1429,208L1440,192L1440,320L1429.1,320C1418.2,320,1396,320,1375,320C1352.7,320,1331,320,1309,320C1287.3,320,1265,320,1244,320C1221.8,320,1200,320,1178,320C1156.4,320,1135,320,1113,320C1090.9,320,1069,320,1047,320C1025.5,320,1004,320,982,320C960,320,938,320,916,320C894.5,320,873,320,851,320C829.1,320,807,320,785,320C763.6,320,742,320,720,320C698.2,320,676,320,655,320C632.7,320,611,320,589,320C567.3,320,545,320,524,320C501.8,320,480,320,458,320C436.4,320,415,320,393,320C370.9,320,349,320,327,320C305.5,320,284,320,262,320C240,320,218,320,196,320C174.5,320,153,320,131,320C109.1,320,87,320,65,320C43.6,320,22,320,11,320L0,320Z"></path></svg>